FacultyGlyphic_V1.001.glyphspackage
{
glyphname = exclam;
layers = (
{
layerId = m01;
shapes = (
{
closed = 1;
nodes = (
(40,64,l),
(118,-14,l),
(196,64,l),
(118,142,l)
);
},
{
closed = 1;
nodes = (
(50,775,l),
(61,720,o),
(70,634,o),
(72,567,cs),
(82,214,l),
(154,214,l),
(164,567,ls),
(166,634,o),
(175,720,o),
(186,775,c)
);
}
);
width = 236;
}
);
note = exclam;
unicode = 33;
}
{
glyphname = quotedbl;
kernLeft = quote;
kernRight = quote;
layers = (
{
layerId = m01;
shapes = (
{
closed = 1;
nodes = (
(20,775,l),
(79,534,l),
(133,534,l),
(120,775,l)
);
},
{
closed = 1;
nodes = (
(168,775,l),
(227,534,l),
(281,534,l),
(268,775,l)
);
}
);
width = 321;
}
);
note = quotedbl;
unicode = 34;
}
{
glyphname = percent;
layers = (
{
layerId = m01;
shapes = (
{
closed = 1;
nodes = (
(527,775,l),
(517,734,o),
(488,686,o),
(442,593,c),
(211,187,ls),
(158,96,o),
(112,33,o),
(86,0,c),
(214,0,l),
(222,34,o),
(243,78,o),
(277,142,cs),
(518,568,ls),
(582,675,o),
(627,739,o),
(655,775,c)
);
},
{
closed = 1;
nodes = (
(657,-14,o),
(718,62,o),
(718,161,cs),
(718,260,o),
(657,337,o),
(560,337,cs),
(464,337,o),
(403,260,o),
(403,161,cs),
(403,62,o),
(464,-14,o),
(560,-14,cs)
);
},
{
closed = 1;
nodes = (
(507,55,o),
(483,96,o),
(483,161,cs),
(483,226,o),
(507,269,o),
(560,269,cs),
(612,269,o),
(638,226,o),
(638,161,cs),
(638,96,o),
(612,55,o),
(560,55,cs)
);
},
{
closed = 1;
nodes = (
(284,438,o),
(345,514,o),
(345,613,cs),
(345,712,o),
(284,789,o),
(187,789,cs),
(91,789,o),
(30,712,o),
(30,613,cs),
(30,514,o),
(91,438,o),
(187,438,cs)
);
},
{
closed = 1;
nodes = (
(134,507,o),
(110,548,o),
(110,613,cs),
(110,678,o),
(134,721,o),
(187,721,cs),
(239,721,o),
(265,678,o),
(265,613,cs),
(265,548,o),
(239,507,o),
(187,507,cs)
);
}
);
width = 748;
}
);
unicode = 37;
}
{
glyphname = parenleft;
kernLeft = bracket;
kernRight = bracket;
layers = (
{
layerId = m01;
shapes = (
{
closed = 1;
nodes = (
(252,841,l),
(206,767,o),
(130,586,o),
(130,359,cs),
(130,133,o),
(206,-47,o),
(252,-121,c),
(186,-125,l),
(127,-37,o),
(35,133,o),
(35,359,cs),
(35,586,o),
(127,757,o),
(186,845,c)
);
}
);
width = 312;
}
);
metricLeft = O;
metricRight = "=H-10";
note = parenleft;
unicode = 40;
}
{
glyphname = parenright;
layers = (
{
layerId = m01;
shapes = (
{
closed = 1;
nodes = (
(185,757,o),
(277,586,o),
(277,359,c),
(277,359,l),
(277,133,o),
(185,-37,o),
(126,-125,c),
(60,-121,l),
(106,-47,o),
(182,133,o),
(182,359,cs),
(182,586,o),
(106,767,o),
(60,841,c),
(126,845,l)
);
}
);
width = 312;
}
);
metricLeft = "=H-10";
metricRight = O;
note = parenright;
unicode = 41;
}
{
glyphname = comma;
kernLeft = period;
kernRight = period;
layers = (
{
layerId = m01;
shapes = (
{
closed = 1;
nodes = (
(40,64,l),
(101,3,l),
(61,-106,l),
(92,-114,l),
(196,64,l),
(118,142,l)
);
}
);
width = 236;
}
);
note = comma;
unicode = 44;
}
{
glyphname = eight;
layers = (
{
layerId = m01;
shapes = (
{
closed = 1;
nodes = (
(462,-14,o),
(576,79,o),
(576,219,cs),
(576,306,o),
(532,372,o),
(459,408,c),
(511,447,o),
(541,508,o),
(541,573,cs),
(541,689,o),
(445,789,o),
(305,789,cs),
(167,789,o),
(70,688,o),
(70,573,cs),
(70,508,o),
(100,447,o),
(152,408,c),
(79,372,o),
(35,306,o),
(35,219,cs),
(35,78,o),
(149,-14,o),
(305,-14,cs)
);
},
{
closed = 1;
nodes = (
(203,66,o),
(138,119,o),
(138,219,cs),
(138,315,o),
(198,360,o),
(304,360,cs),
(411,360,o),
(473,315,o),
(473,219,cs),
(473,120,o),
(406,66,o),
(304,66,cs)
);
},
{
closed = 1;
nodes = (
(217,440,o),
(168,501,o),
(168,573,cs),
(168,646,o),
(218,709,o),
(304,709,cs),
(392,709,o),
(443,646,o),
(443,573,cs),
(443,501,o),
(392,440,o),
(304,440,cs)
);
}
);
width = 611;
}
);
metricLeft = O;
metricRight = O;
note = eight;
unicode = 56;
}
{
glyphname = nine;
layers = (
{
layerId = m01;
shapes = (
{
closed = 1;
nodes = (
(152,789,o),
(35,692,o),
(35,536,cs),
(35,403,o),
(142,295,o),
(301,295,cs),
(362,295,o),
(409,316,o),
(442,349,c),
(409,250,o),
(323,155,o),
(244,83,cs),
(214,56,o),
(182,29,o),
(134,4,c),
(134,0,l),
(292,0,l),
(299,11,o),
(309,25,o),
(355,71,cs),
(462,171,o),
(565,322,o),
(565,511,cs),
(565,676,o),
(473,789,o),
(301,789,cs)
);
},
{
closed = 1;
nodes = (
(395,709,o),
(473,649,o),
(473,536,cs),
(473,443,o),
(405,375,o),
(302,375,cs),
(199,375,o),
(128,442,o),
(128,536,cs),
(128,659,o),
(209,709,o),
(302,709,cs)
);
}
);
width = 600;
}
);
metricLeft = O;
metricRight = O;
note = nine;
unicode = 57;
}
{
glyphname = C;
kernLeft = O;
kernRight = C;
layers = (
{
anchors = (
{
name = bottom;
pos = (427,0);
},
{
name = top;
pos = (427,775);
}
);
layerId = m01;
shapes = (
{
closed = 1;
nodes = (
(650,126,o),
(569,66,o),
(427,66,cs),
(258,66,o),
(143,213,o),
(143,388,cs),
(143,563,o),
(258,709,o),
(427,709,cs),
(563,709,o),
(648,649,o),
(701,568,c),
(705,568,l),
(689,713,l),
(623,764,o),
(549,789,o),
(427,789,cs),
(200,789,o),
(35,615,o),
(35,388,cs),
(35,161,o),
(199,-14,o),
(427,-14,cs),
(554,-14,o),
(625,11,o),
(691,62,c),
(707,208,l),
(703,208,l)
);
}
);
width = 747;
}
);
metricLeft = O;
metricRight = "=O+5";
note = C;
unicode = 67;
}
{
glyphname = D;
kernLeft = H;
kernRight = O;
layers = (
{
anchors = (
{
name = bottom;
pos = (387,0);
},
{
name = center;
pos = (199,388);
},
{
name = top;
pos = (387,775);
}
);
layerId = m01;
shapes = (
{
closed = 1;
nodes = (
(70,775,l),
(87,703,o),
(88,628,o),
(88,553,cs),
(88,222,ls),
(88,147,o),
(87,72,o),
(70,0,c),
(333,0,ls),
(605,0,o),
(729,215,o),
(729,388,cs),
(729,561,o),
(605,775,o),
(333,775,cs)
);
},
{
closed = 1;
nodes = (
(188,695,l),
(303,695,ls),
(555,695,o),
(621,521,o),
(621,388,cs),
(621,255,o),
(555,80,o),
(303,80,cs),
(188,80,l)
);
}
);
width = 764;
}
);
metricLeft = "=H";
metricRight = O;
note = D;
unicode = 68;
}
{
glyphname = K;
kernLeft = H;
kernRight = K;
layers = (
{
anchors = (
{
name = bottom;
pos = (387,0);
},
{
name = top;
pos = (387,775);
}
);
layerId = m01;
shapes = (
{
closed = 1;
nodes = (
(70,775,l),
(87,703,o),
(88,628,o),
(88,553,cs),
(88,222,ls),
(88,147,o),
(87,72,o),
(70,0,c),
(206,0,l),
(189,72,o),
(188,147,o),
(188,222,cs),
(188,418,l),
(480,99,ls),
(522,51,o),
(549,10,o),
(553,0,c),
(714,0,l),
(656,49,o),
(610,92,o),
(566,137,cs),
(307,420,l),
(507,639,ls),
(551,684,o),
(595,726,o),
(653,775,c),
(492,775,l),
(488,764,o),
(457,720,o),
(409,664,cs),
(188,421,l),
(188,553,ls),
(188,628,o),
(189,703,o),
(206,775,c)
);
}
);
width = 729;
}
);
metricLeft = H;
note = K;
unicode = 75;
}
{
glyphname = Q;
kernLeft = O;
kernRight = O;
layers = (
{
anchors = (
{
name = bottom;
pos = (429,0);
},
{
name = top;
pos = (429,775);
}
);
hints = (
{
horizontal = 1;
place = (713,76);
type = Stem;
}
);
layerId = m01;
shapes = (
{
closed = 1;
nodes = (
(477,-39,l),
(477,-11,l),
(680,12,o),
(822,178,o),
(822,388,cs),
(822,617,o),
(657,789,o),
(428,789,cs),
(199,789,o),
(35,615,o),
(35,388,cs),
(35,178,o),
(175,13,o),
(377,-11,c),
(377,-39,l),
(358,-39,ls),
(283,-39,o),
(208,-38,o),
(136,-21,c),
(136,-137,l),
(208,-120,o),
(283,-119,o),
(358,-119,cs),
(500,-119,ls),
(575,-119,o),
(650,-120,o),
(722,-137,c),
(722,-21,l),
(650,-38,o),
(575,-39,o),
(500,-39,cs)
);
},
{
closed = 1;
nodes = (
(254,66,o),
(143,216,o),
(143,388,cs),
(143,560,o),
(254,709,o),
(427,709,cs),
(601,709,o),
(714,562,o),
(714,388,cs),
(714,216,o),
(601,66,o),
(427,66,cs)
);
}
);
width = 857;
}
);
metricLeft = O;
metricRight = O;
note = Q;
unicode = 81;
}
{
glyphname = T;
kernLeft = T;
kernRight = T;
layers = (
{
anchors = (
{
name = bottom;
pos = (347,0);
},
{
name = center;
pos = (347,388);
},
{
name = top;
pos = (347,775);
}
);
layerId = m01;
shapes = (
{
closed = 1;
nodes = (
(44,775,l),
(20,657,l),
(74,685,o),
(128,695,o),
(237,695,cs),
(297,695,l),
(297,222,ls),
(297,147,o),
(296,72,o),
(279,0,c),
(415,0,l),
(398,72,o),
(397,147,o),
(397,222,cs),
(397,695,l),
(457,695,ls),
(566,695,o),
(620,685,o),
(674,657,c),
(650,775,l)
);
}
);
width = 694;
}
);
note = T;
unicode = 84;
}
{
glyphname = V;
kernLeft = V;
kernRight = V;
layers = (
{
anchors = (
{
name = bottom;
pos = (407,0);
},
{
name = top;
pos = (407,775);
}
);
layerId = m01;
shapes = (
{
closed = 1;
nodes = (
(616,621,l),
(592,560,l)
);
},
{
closed = 1;
nodes = (
(663,775,l),
(658,749,o),
(651,722,o),
(639,685,c),
(407,123,l),
(225,563,l),
(180,676,o),
(164,728,o),
(156,775,c),
(138,775,l),
(37,775,l),
(15,775,l),
(67,694,o),
(92,639,o),
(126,559,c),
(357,0,l),
(457,0,l),
(705,600,l),
(731,659,o),
(757,709,o),
(799,775,c)
);
}
);
width = 814;
}
);
note = V;
unicode = 86;
}
{
glyphname = X;
kernLeft = X;
kernRight = X;
layers = (
{
anchors = (
{
name = bottom;
pos = (400,0);
},
{
name = top;
pos = (400,775);
}
);
layerId = m01;
shapes = (
{
closed = 1;
nodes = (
(759,0,l),
(723,36,o),
(692,72,o),
(662,110,c),
(462,402,l),
(617,627,l),
(656,679,o),
(694,727,o),
(742,775,c),
(587,775,l),
(568,732,o),
(538,682,o),
(477,590,cs),
(403,484,l),
(275,663,l),
(244,711,o),
(225,745,o),
(212,775,c),
(57,775,l),
(104,728,o),
(142,680,o),
(180,629,cs),
(342,395,l),
(166,147,ls),
(127,95,o),
(87,48,o),
(40,0,c),
(195,0,l),
(212,38,o),
(238,81,o),
(286,153,cs),
(399,313,l),
(515,151,l),
(561,80,o),
(587,38,o),
(604,0,c)
);
},
{
closed = 1;
nodes = (
(209,588,l),
(231,557,l)
);
},
{
closed = 1;
nodes = (
(621,164,l),
(582,218,l)
);
},
{
closed = 1;
nodes = (
(590,588,l),
(568,557,l)
);
},
{
closed = 1;
nodes = (
(178,164,l),
(217,218,l)
);
}
);
width = 799;
}
);
metricLeft = "=H-30";
metricRight = "=H-30";
note = X;
unicode = 88;
}
{
glyphname = backslash;
layers = (
{
layerId = m01;
shapes = (
{
closed = 1;
nodes = (
(509,-70,l),
(483,-37,o),
(454,20,o),
(413,116,cs),
(184,666,l),
(149,758,o),
(138,804,o),
(128,845,c),
(0,845,l),
(26,812,o),
(55,755,o),
(96,659,cs),
(325,109,l),
(360,17,o),
(371,-29,o),
(381,-70,c)
);
}
);
width = 509;
}
);
note = backslash;
unicode = 92;
}
{
glyphname = asciicircum;
layers = (
{
layerId = m01;
shapes = (
{
closed = 1;
nodes = (
(211,683,l),
(296,496,l),
(390,496,l),
(255,775,l),
(165,775,l),
(30,496,l),
(124,496,l)
);
}
);
width = 420;
}
);
unicode = 94;
}
{
glyphname = f;
kernLeft = f;
kernRight = f;
layers = (
{
anchors = (
{
name = bottom;
pos = (204,0);
},
{
name = top;
pos = (204,785);
}
);
layerId = m01;
shapes = (
{
closed = 1;
nodes = (
(346,550,l),
(195,550,l),
(199,640,o),
(180,703,o),
(264,703,cs),
(328,703,o),
(349,668,o),
(351,664,c),
(354,664,l),
(392,753,l),
(364,768,o),
(328,785,o),
(270,785,cs),
(98,785,o),
(105,656,o),
(105,550,c),
(25,550,l),
(15,470,l),
(41,475,o),
(66,478,o),
(105,479,c),
(105,221,ls),
(105,112,o),
(100,54,o),
(87,0,c),
(213,0,l),
(200,54,o),
(195,112,o),
(195,221,cs),
(195,481,l),
(284,480,o),
(316,477,o),
(356,470,c)
);
}
);
width = 397;
}
);
note = f;
unicode = 102;
}
{
glyphname = k;
kernLeft = h;
kernRight = k;
layers = (
{
anchors = (
{
name = bottom;
pos = (299,0);
},
{
name = top;
pos = (299,785);
}
);
layerId = m01;
shapes = (
{
closed = 1;
nodes = (
(450,120,l),
(282,298,l),
(425,450,ls),
(458,483,o),
(492,514,o),
(535,550,c),
(396,550,l),
(392,541,o),
(367,509,o),
(331,468,cs),
(173,299,l),
(173,728,l),
(173,780,l),
(40,752,l),
(40,746,l),
(67,701,o),
(78,661,o),
(78,553,cs),
(78,222,ls),
(78,147,o),
(77,72,o),
(60,0,c),
(191,0,l),
(174,72,o),
(173,147,o),
(173,222,cs),
(173,296,l),
(384,71,ls),
(415,37,o),
(436,8,o),
(439,0,c),
(578,0,l),
(522,46,o),
(481,85,o),
(439,132,cs)
);
},
{
closed = 1;
nodes = (
(383,73,l),
(359,98,l)
);
},
{
closed = 1;
nodes = (
(418,442,l),
(395,418,l)
);
}
);
width = 603;
}
);
metricLeft = h;
note = k;
unicode = 107;
}
{
glyphname = t;
kernLeft = t;
kernRight = t;
layers = (
{
anchors = (
{
name = bottom;
pos = (192,0);
},
{
name = center;
pos = (192,275);
},
{
name = top;
pos = (192,666);
},
{
name = topright;
pos = (216,785);
}
);
hints = (
{
horizontal = 1;
origin = (0,12);
target = down;
type = TopGhost;
}
);
layerId = m01;
shapes = (
{
closed = 1;
nodes = (
(103,481,l),
(103,481,o),
(53,476,o),
(20,470,c),
(20,481,l),
(188,666,l),
(198,666,l),
(198,550,l),
(339,550,l),
(349,470,l),
(309,478,o),
(277,480,o),
(198,481,c),
(198,170,ls),
(198,95,o),
(216,70,o),
(268,70,cs),
(301,70,o),
(321,84,o),
(338,109,c),
(366,71,l),
(346,21,o),
(307,-14,o),
(244,-14,cs),
(151,-14,o),
(103,47,o),
(103,166,cs)
);
}
);
width = 386;
}
);
metricRight = "=20";
note = t;
unicode = 116;
}
{
glyphname = braceleft;
layers = (
{
layerId = m01;
shapes = (
{
closed = 1;
nodes = (
(10,344,l),
(71,345,o),
(92,305,o),
(92,265,cs),
(92,139,l),
(92,-15,ls),
(92,-97,o),
(135,-134,o),
(224,-134,cs),
(265,-134,o),
(298,-121,o),
(301,-120,c),
(299,-101,l),
(218,-102,o),
(187,-68,o),
(187,2,cs),
(187,98,l),
(187,282,ls),
(187,317,o),
(167,345,o),
(137,360,c),
(167,375,o),
(187,403,o),
(187,438,cs),
(187,581,l),
(187,622,l),
(187,718,ls),
(187,788,o),
(218,822,o),
(299,821,c),
(301,840,l),
(298,841,o),
(265,854,o),
(224,854,cs),
(135,854,o),
(92,817,o),
(92,735,cs),
(92,622,l),
(92,581,l),
(92,455,ls),
(92,415,o),
(71,375,o),
(10,376,c)
);
}
);
width = 321;
}
);
note = braceleft;
unicode = 123;
}
{
glyphname = braceright;
layers = (
{
layerId = m01;
shapes = (
{
closed = 1;
nodes = (
(311,366,l),
(250,365,o),
(229,405,o),
(229,445,cs),
(229,581,l),
(229,735,ls),
(229,817,o),
(186,854,o),
(97,854,cs),
(56,854,o),
(23,841,o),
(20,840,c),
(22,831,l),
(103,832,o),
(134,798,o),
(134,728,cs),
(134,622,l),
(134,438,ls),
(134,403,o),
(154,375,o),
(184,360,c),
(154,345,o),
(134,317,o),
(134,282,cs),
(134,139,l),
(134,98,l),
(134,-8,ls),
(134,-78,o),
(103,-112,o),
(22,-111,c),
(20,-120,l),
(23,-121,o),
(56,-134,o),
(97,-134,cs),
(186,-134,o),
(229,-97,o),
(229,-15,cs),
(229,98,l),
(229,139,l),
(229,275,ls),
(229,315,o),
(250,355,o),
(311,354,c)
);
}
);
width = 321;
}
);
note = braceright;
unicode = 125;
}
{
glyphname = section;
kernLeft = s;
kernRight = s;
layers = (
{
layerId = m01;
shapes = (
{
closed = 1;
nodes = (
(49,183,l),
(53,183,l),
(58,151,o),
(112,66,o),
(198,66,cs),
(258,66,o),
(298,98,o),
(298,151,cs),
(298,202,o),
(249,225,o),
(193,249,cs),
(121,280,o),
(39,329,o),
(39,412,cs),
(39,455,o),
(61,499,o),
(101,520,c),
(65,545,o),
(39,580,o),
(39,636,cs),
(39,739,o),
(119,789,o),
(222,789,cs),
(296,789,o),
(340,753,o),
(358,732,c),
(346,631,l),
(342,631,l),
(321,680,o),
(272,709,o),
(221,709,cs),
(164,709,o),
(125,687,o),
(125,641,cs),
(125,590,o),
(174,569,o),
(229,546,cs),
(301,516,o),
(385,463,o),
(385,372,cs),
(385,326,o),
(362,291,o),
(324,273,c),
(359,246,o),
(385,209,o),
(385,148,cs),
(385,44,o),
(299,-14,o),
(198,-14,cs),
(112,-14,o),
(49,39,o),
(35,72,c)
);
},
{
closed = 1;
nodes = (
(125,367,o),
(174,345,o),
(229,322,cs),
(266,306,l),
(287,323,o),
(298,348,o),
(298,375,cs),
(298,431,o),
(249,449,o),
(193,473,cs),
(157,489,l),
(135,469,o),
(125,440,o),
(125,417,cs)
);
}
);
width = 420;
}
);
metricLeft = s;
metricRight = s;
unicode = 167;
}
{
glyphname = guillemotright;
layers = (
{
layerId = m01;
shapes = (
{
closed = 1;
nodes = (
(245,488,l),
(398,275,l),
(245,62,l),
(269,43,l),
(537,275,l),
(269,507,l)
);
},
{
closed = 1;
nodes = (
(20,488,l),
(173,275,l),
(20,62,l),
(44,43,l),
(312,275,l),
(44,507,l)
);
}
);
width = 557;
}
);
note = guillemotright;
unicode = 187;
}
{
glyphname = onequarter;
layers = (
{
layerId = m01;
shapes = (
{
closed = 1;
nodes = (
(494,775,l),
(483,732,o),
(457,683,o),
(402,582,cs),
(175,185,ls),
(122,97,o),
(76,33,o),
(50,0,c),
(178,0,l),
(187,36,o),
(208,80,o),
(247,153,cs),
(492,580,ls),
(552,681,o),
(595,741,o),
(622,775,c)
);
},
{
closed = 1;
nodes = (
(77,409,o),
(76,364,o),
(66,321,c),
(155,321,l),
(144,364,o),
(144,409,o),
(144,454,cs),
(144,653,l),
(144,758,l),
(144,789,l),
(30,711,l),
(30,703,l),
(67,703,o),
(77,694,o),
(77,629,cs),
(77,454,ls)
);
},
{
closed = 1;
nodes = (
(721,197,l),
(693,191,o),
(665,188,o),
(636,187,c),
(636,468,l),
(364,157,l),
(364,129,l),
(569,129,l),
(569,61,o),
(569,33,o),
(547,0,c),
(647,0,l),
(637,41,o),
(636,84,o),
(636,128,c),
(665,127,o),
(693,124,o),
(721,118,c)
);
},
{
closed = 1;
nodes = (
(569,307,l),
(569,185,l),
(459,185,l)
);
},
{
closed = 1;
nodes = (
);
}
);
width = 751;
}
);
metricRight = "=four";
unicode = 188;
}
{
glyphname = threequarters;
layers = (
{
layerId = m01;
shapes = (
{
closed = 1;
nodes = (
(624,775,l),
(613,732,o),
(587,683,o),
(532,582,cs),
(305,185,ls),
(252,97,o),
(206,33,o),
(180,0,c),
(308,0,l),
(317,36,o),
(338,80,o),
(377,153,cs),
(622,580,ls),
(682,681,o),
(725,741,o),
(752,775,c)
);
},
{
closed = 1;
nodes = (
(851,197,l),
(823,191,o),
(795,188,o),
(766,187,c),
(766,468,l),
(494,157,l),
(494,129,l),
(699,129,l),
(699,61,o),
(699,33,o),
(677,0,c),
(777,0,l),
(767,41,o),
(766,84,o),
(766,128,c),
(795,127,o),
(823,124,o),
(851,118,c)
);
},
{
closed = 1;
nodes = (
(699,307,l),
(699,185,l),
(589,185,l)
);
},
{
closed = 1;
nodes = (
(346,747,l),
(346,775,l),
(60,775,l),
(51,694,l),
(84,711,o),
(110,717,o),
(176,717,cs),
(250,717,l),
(123,527,l),
(135,523,l),
(153,531,o),
(179,534,o),
(195,534,cs),
(248,534,o),
(288,497,o),
(288,439,cs),
(288,391,o),
(251,358,o),
(196,358,cs),
(152,358,o),
(107,390,o),
(86,442,c),
(84,442,l),
(40,366,l),
(72,326,o),
(141,300,o),
(196,300,cs),
(283,300,o),
(359,366,o),
(359,439,cs),
(359,509,o),
(310,569,o),
(232,579,c)
);
},
{
closed = 1;
nodes = (
);
}
);
width = 881;
}
);
metricLeft = three;
metricRight = four;
unicode = 190;
}
{
glyphname = AE;
kernLeft = A;
kernRight = E;
layers = (
{
layerId = m01;
shapes = (
{
closed = 1;
nodes = (
(382,775,l),
(121,198,ls),
(88,130,o),
(58,75,o),
(10,0,c),
(151,0,l),
(159,41,o),
(173,84,o),
(208,166,cs),
(237,230,l),
(464,230,l),
(464,222,ls),
(464,147,o),
(463,72,o),
(446,0,c),
(902,0,l),
(926,118,l),
(872,90,o),
(790,80,o),
(681,80,cs),
(564,80,l),
(564,356,l),
(649,356,ls),
(693,356,o),
(768,355,o),
(840,338,c),
(840,454,l),
(768,437,o),
(693,436,o),
(649,436,cs),
(564,436,l),
(564,695,l),
(673,695,ls),
(782,695,o),
(836,685,o),
(890,657,c),
(866,775,l)
);
},
{
closed = 1;
nodes = (
(447,695,l),
(464,695,l),
(464,310,l),
(273,310,l)
);
}
);
width = 976;
}
);
metricLeft = A;
metricRight = E;
unicode = 198;
}
{
glyphname = multiply;
layers = (
{
layerId = m01;
shapes = (
{
closed = 1;
nodes = (
(105,43,l),
(128,78,o),
(145,100,o),
(168,124,cs),
(262,218,l),
(356,124,ls),
(379,100,o),
(396,78,o),
(419,43,c),
(494,118,l),
(459,141,o),
(437,158,o),
(413,181,cs),
(319,275,l),
(413,369,ls),
(437,392,o),
(459,409,o),
(494,432,c),
(419,507,l),
(396,472,o),
(379,450,o),
(356,426,cs),
(262,332,l),
(168,426,ls),
(145,450,o),
(128,472,o),
(105,507,c),
(30,432,l),
(65,409,o),
(87,392,o),
(111,369,cs),
(205,275,l),
(111,181,ls),
(87,158,o),
(65,141,o),
(30,118,c)
);
},
{
closed = 1;
nodes = (
(397,354,l),
(363,320,l)
);
},
{
closed = 1;
nodes = (
(183,140,l),
(217,174,l)
);
},
{
closed = 1;
nodes = (
(341,410,l),
(307,376,l)
);
},
{
closed = 1;
nodes = (
(127,196,l),
(161,230,l)
);
},
{
closed = 1;
nodes = (
(341,140,l),
(307,174,l)
);
},
{
closed = 1;
nodes = (
(127,354,l),
(161,320,l)
);
},
{
closed = 1;
nodes = (
(397,196,l),
(363,230,l)
);
},
{
closed = 1;
nodes = (
(183,410,l),
(217,376,l)
);
}
);
width = 524;
}
);
unicode = 215;
}
{
glyphname = germandbls;
kernLeft = n;
kernRight = B;
layers = (
{
layerId = m01;
shapes = (
{
closed = 1;
nodes = (
(88,222,ls),
(88,147,o),
(87,72,o),
(70,0,c),
(188,0,l),
(188,513,ls),
(188,655,o),
(231,706,o),
(328,706,cs),
(409,706,o),
(446,662,o),
(446,594,cs),
(446,492,o),
(388,432,o),
(278,415,c),
(278,381,l),
(296,381,ls),
(482,381,o),
(528,306,o),
(528,211,cs),
(528,122,o),
(467,65,o),
(368,65,cs),
(326,65,o),
(278,90,o),
(264,111,c),
(261,111,l),
(231,13,l),
(258,0,o),
(318,-15,o),
(366,-15,cs),
(519,-15,o),
(631,81,o),
(631,212,cs),
(631,312,o),
(568,399,o),
(465,430,c),
(518,466,o),
(549,521,o),
(549,594,cs),
(549,710,o),
(470,786,o),
(326,786,cs),
(161,786,o),
(88,703,o),
(88,513,cs)
);
}
);
width = 676;
}
);
metricLeft = H;
metricRight = B;
unicode = 223;
}
{
glyphname = ae;
kernLeft = a;
kernRight = e;
layers = (
{
layerId = m01;
shapes = (
{
closed = 1;
nodes = (
(810,139,l),
(796,118,o),
(760,76,o),
(681,67,cs),
(557,53,o),
(459,151,o),
(459,274,c),
(865,274,l),
(865,437,o),
(784,564,o),
(635,564,cs),
(554,564,o),
(480,527,o),
(430,466,c),
(400,533,o),
(346,563,o),
(261,563,cs),
(187,563,o),
(123,543,o),
(70,505,c),
(73,401,l),
(80,401,l),
(122,450,o),
(184,483,o),
(247,483,cs),
(318,483,o),
(352,441,o),
(360,342,c),
(158,368,o),
(30,297,o),
(30,158,cs),
(30,59,o),
(108,-15,o),
(211,-15,cs),
(307,-15,o),
(372,22,o),
(406,116,c),
(456,37,o),
(541,-14,o),
(636,-14,cs),
(766,-14,o),
(823,64,o),
(846,108,c)
);
},
{
closed = 1;
nodes = (
(128,251,o),
(220,295,o),
(361,279,c),
(361,188,ls),
(361,121,o),
(302,65,o),
(231,65,cs),
(166,65,o),
(128,99,o),
(128,158,cs)
);
},
{
closed = 1;
nodes = (
(486,431,o),
(539,484,o),
(625,484,cs),
(704,484,o),
(746,431,o),
(761,349,c),
(467,349,l)
);
}
);
width = 890;
}
);
metricLeft = a;
metricRight = e;
unicode = 230;
}
{
glyphname = OE;
kernLeft = O;
kernRight = E;
layers = (
{
layerId = m01;
shapes = (
{
closed = 1;
nodes = (
(431,775,ls),
(159,775,o),
(35,561,o),
(35,388,cs),
(35,215,o),
(159,0,o),
(431,0,cs),
(907,0,l),
(931,118,l),
(877,90,o),
(795,80,o),
(686,80,cs),
(568,80,l),
(568,356,l),
(623,356,ls),
(698,356,o),
(773,355,o),
(845,338,c),
(845,454,l),
(773,437,o),
(698,436,o),
(623,436,cs),
(568,436,l),
(568,695,l),
(678,695,ls),
(787,695,o),
(841,685,o),
(895,657,c),
(871,775,l)
);
},
{
closed = 1;
nodes = (
(143,521,o),
(209,695,o),
(461,695,cs),
(468,695,l),
(468,80,l),
(461,80,ls),
(209,80,o),
(143,255,o),
(143,388,cs)
);
}
);
width = 981;
}
);
metricLeft = O;
metricRight = E;
unicode = 338;
}
{
glyphname = scedilla;
kernLeft = s;
kernRight = s;
layers = (
{
anchors = (
{
name = bottom;
pos = (210,-260);
}
);
layerId = m01;
shapes = (
{
ref = s;
},
{
closed = 1;
nodes = (
(182,-110,ls),
(250,-96,o),
(290,-128,o),
(290,-158,cs),
(290,-191,o),
(262,-211,o),
(220,-211,cs),
(168,-211,o),
(128,-182,o),
(106,-128,c),
(103,-128,l),
(65,-193,l),
(100,-237,o),
(151,-260,o),
(220,-260,cs),
(311,-260,o),
(373,-219,o),
(373,-160,cs),
(373,-109,o),
(319,-66,o),
(246,-68,c),
(284,2,l),
(229,2,l),
(172,-112,l)
);
}
);
width = 420;
}
);
unicode = 351;
}
{
glyphname = tcedilla;
kernLeft = t;
kernRight = t;
layers = (
{
anchors = (
{
name = bottom;
pos = (212,-260);
}
);
layerId = m01;
shapes = (
{
ref = t;
},
{
closed = 1;
nodes = (
(341,-67,o),
(395,-109,o),
(395,-160,cs),
(395,-219,o),
(333,-260,o),
(242,-260,cs),
(173,-260,o),
(122,-237,o),
(87,-193,c),
(125,-128,l),
(128,-128,l),
(150,-182,o),
(190,-211,o),
(242,-211,cs),
(284,-211,o),
(312,-191,o),
(312,-158,cs),
(312,-128,o),
(272,-96,o),
(204,-110,cs),
(194,-112,l),
(250,0,l),
(305,0,l),
(268,-68,l)
);
}
);
width = 386;
}
);
unicode = 355;
}
{
glyphname = schwa;
kernLeft = o;
kernRight = o;
layers = (
{
layerId = m01;
shapes = (
{
closed = 1;
nodes = (
(85,412,l),
(99,433,o),
(135,475,o),
(214,484,cs),
(338,498,o),
(436,400,o),
(436,277,c),
(30,277,l),
(30,114,o),
(111,-13,o),
(260,-13,cs),
(409,-13,o),
(534,114,o),
(534,277,cs),
(534,440,o),
(408,565,o),
(259,565,cs),
(129,565,o),
(72,487,o),
(49,443,c)
);
},
{
closed = 1;
nodes = (
(428,202,l),
(409,120,o),
(356,67,o),
(270,67,cs),
(191,67,o),
(149,120,o),
(134,202,c)
);
}
);
width = 564;
}
);
metricLeft = o;
metricRight = o;
unicode = 601;
}
{
glyphname = acutecomb;
layers = (
{
anchors = (
{
name = _top;
pos = (115,550);
},
{
name = top;
pos = (115,0);
}
);
layerId = m01;
shapes = (
{
closed = 1;
nodes = (
(256,775,l),
(131,775,l),
(65,615,l),
(135,615,l)
);
}
);
width = 291;
}
);
unicode = 769;
}
{
glyphname = macroncomb;
layers = (
{
anchors = (
{
name = _top;
pos = (187,550);
},
{
name = top;
pos = (187,0);
}
);
layerId = m01;
shapes = (
{
closed = 1;
nodes = (
(50,674,l),
(324,674,l),
(324,739,l),
(50,739,l)
);
}
);
width = 374;
}
);
unicode = 772;
}
{
glyphname = brevecomb;
layers = (
{
anchors = (
{
name = _top;
pos = (181,550);
},
{
name = top;
pos = (181,0);
}
);
hints = (
{
place = (181,30);
type = Stem;
}
);
layerId = m01;
shapes = (
{
closed = 1;
nodes = (
(278,615,o),
(314,697,o),
(314,775,c),
(254,775,l),
(254,735,o),
(245,680,o),
(182,680,cs),
(119,680,o),
(110,735,o),
(110,775,c),
(50,775,l),
(50,697,o),
(86,615,o),
(182,615,cs)
);
}
);
width = 364;
}
);
unicode = 774;
}
{
glyphname = ogonekcomb;
layers = (
{
anchors = (
{
name = _ogonek;
pos = (246,0);
}
);
layerId = m01;
shapes = (
{
closed = 1;
nodes = (
(238,19,l),
(105,-30,o),
(50,-76,o),
(50,-140,cs),
(50,-212,o),
(112,-260,o),
(203,-260,cs),
(268,-260,o),
(324,-236,o),
(358,-193,c),
(320,-128,l),
(317,-128,l),
(296,-180,o),
(253,-211,o),
(203,-211,cs),
(158,-211,o),
(133,-185,o),
(133,-138,cs),
(133,-77,o),
(176,-26,o),
(251,0,c)
);
}
);
width = 408;
}
);
unicode = 808;
}
{
glyphname = fraction;
layers = (
{
layerId = m01;
shapes = (
{
closed = 1;
nodes = (
(474,775,l),
(463,732,o),
(437,683,o),
(382,582,cs),
(155,185,ls),
(102,97,o),
(56,33,o),
(30,0,c),
(158,0,l),
(167,36,o),
(188,80,o),
(227,153,cs),
(472,580,ls),
(532,681,o),
(575,741,o),
(602,775,c)
);
},
{
closed = 1;
nodes = (
);
}
);
width = 632;
}
);
unicode = 8260;
}
{
glyphname = won;
kernLeft = H;
kernRight = H;
layers = (
{
hints = (
{
place = (1182,30);
type = Stem;
}
);
layerId = m01;
shapes = (
{
closed = 1;
nodes = (
(930,0,l),
(1024,280,l),
(1060,280,ls),
(1135,280,o),
(1166,280,o),
(1232,267,c),
(1232,363,l),
(1166,350,o),
(1135,350,o),
(1060,350,cs),
(1047,350,l),
(1084,459,l),
(1142,459,o),
(1174,458,o),
(1232,446,c),
(1232,542,l),
(1182,532,o),
(1152,530,o),
(1108,529,c),
(1121,568,ls),
(1148,643,o),
(1169,704,o),
(1212,775,c),
(1067,775,l),
(1059,732,o),
(1051,673,o),
(1023,590,cs),
(878,156,l),
(670,775,l),
(587,775,l),
(379,156,l),
(234,589,ls),
(206,673,o),
(198,732,o),
(190,775,c),
(45,775,l),
(88,704,o),
(109,643,o),
(136,568,cs),
(149,529,l),
(105,530,o),
(75,532,o),
(25,542,c),
(25,446,l),
(83,458,o),
(115,459,o),
(173,459,c),
(210,350,l),
(197,350,ls),
(122,350,o),
(91,350,o),
(25,363,c),
(25,267,l),
(91,280,o),
(122,280,o),
(197,280,cs),
(233,280,l),
(327,0,l),
(427,0,l),
(628,600,l),
(830,0,l)
);
}
);
width = 1257;
}
);
unicode = 8361;
}
{
glyphname = hryvnia;
layers = (
{
layerId = m01;
shapes = (
{
closed = 1;
nodes = (
(207,324,ls),
(132,324,o),
(101,324,o),
(35,337,c),
(35,241,l),
(89,250,l),
(84,234,o),
(82,217,o),
(82,198,cs),
(82,71,o),
(178,-15,o),
(335,-15,cs),
(501,-15,o),
(577,75,o),
(594,96,c),
(527,205,l),
(524,205,l),
(498,139,o),
(440,65,o),
(335,65,cs),
(248,65,o),
(187,120,o),
(187,198,cs),
(187,219,o),
(192,237,o),
(200,254,c),
(453,254,ls),
(528,254,o),
(559,254,o),
(625,241,c),
(625,337,l),
(559,324,o),
(528,324,o),
(453,324,cs)
);
},
{
closed = 1;
nodes = (
(565,530,o),
(574,559,o),
(575,594,cs),
(577,705,o),
(476,788,o),
(325,788,cs),
(173,788,o),
(113,705,o),
(105,695,c),
(160,587,l),
(163,587,l),
(178,643,o),
(230,708,o),
(327,708,cs),
(411,708,o),
(471,662,o),
(471,591,cs),
(471,552,o),
(451,525,o),
(419,503,c),
(207,503,ls),
(132,503,o),
(101,503,o),
(35,516,c),
(35,420,l),
(101,433,o),
(132,433,o),
(207,433,cs),
(453,433,ls),
(528,433,o),
(559,433,o),
(625,420,c),
(625,516,l),
(595,510,o),
(572,507,o),
(549,505,c)
);
}
);
width = 660;
}
);
metricLeft = S;
metricRight = S;
unicode = 8372;
}
{
glyphname = rupeeIndian;
layers = (
{
layerId = m01;
shapes = (
{
closed = 1;
nodes = (
(70,677,l),
(101,687,o),
(117,694,o),
(184,695,cs),
(295,694,o),
(362,658,o),
(377,584,c),
(242,584,ls),
(167,584,o),
(136,584,o),
(70,597,c),
(70,501,l),
(136,514,o),
(167,514,o),
(242,514,cs),
(376,514,l),
(360,440,o),
(292,401,o),
(178,401,cs),
(70,401,l),
(70,321,l),
(278,124,l),
(331,70,o),
(366,32,o),
(391,0,c),
(566,0,l),
(498,48,o),
(420,123,o),
(339,194,cs),
(209,316,l),
(209,321,l),
(346,321,o),
(464,396,o),
(485,513,c),
(515,512,o),
(542,509,o),
(580,501,c),
(580,597,l),
(542,589,o),
(515,586,o),
(485,585,c),
(477,634,o),
(452,673,o),
(410,695,c),
(495,692,o),
(543,682,o),
(591,657,c),
(567,775,l),
(70,775,l)
);
}
);
width = 631;
}
);
metricLeft = R;
metricRight = R;
unicode = 8377;
}
{
glyphname = threeeighths;
layers = (
{
layerId = m01;
shapes = (
{
closed = 1;
nodes = (
(624,775,l),
(613,732,o),
(587,683,o),
(532,582,cs),
(305,185,ls),
(252,97,o),
(206,33,o),
(180,0,c),
(308,0,l),
(317,36,o),
(338,80,o),
(377,153,cs),
(622,580,ls),
(682,681,o),
(725,741,o),
(752,775,c)
);
},
{
closed = 1;
nodes = (
(820,-14,o),
(888,42,o),
(888,125,cs),
(888,176,o),
(864,217,o),
(823,242,c),
(851,265,o),
(867,298,o),
(867,335,cs),
(867,404,o),
(810,463,o),
(726,463,cs),
(644,463,o),
(586,403,o),
(586,335,cs),
(586,298,o),
(602,265,o),
(630,242,c),
(590,217,o),
(565,175,o),
(565,125,cs),
(565,41,o),
(634,-14,o),
(726,-14,cs)
);
},
{
closed = 1;
nodes = (
(675,44,o),
(637,75,o),
(637,125,cs),
(637,173,o),
(672,210,o),
(726,210,cs),
(781,210,o),
(816,173,o),
(816,125,cs),
(816,75,o),
(778,44,o),
(726,44,cs)
);
},
{
closed = 1;
nodes = (
(681,267,o),
(655,300,o),
(655,335,cs),
(655,370,o),
(682,405,o),
(726,405,cs),
(771,405,o),
(799,370,o),
(799,335,cs),
(799,300,o),
(771,267,o),
(726,267,cs)
);
},
{
closed = 1;
nodes = (
(346,747,l),
(346,775,l),
(60,775,l),
(51,694,l),
(84,711,o),
(110,717,o),
(176,717,cs),
(250,717,l),
(123,527,l),
(135,523,l),
(153,531,o),
(179,534,o),
(195,534,cs),
(248,534,o),
(288,497,o),
(288,439,cs),
(288,391,o),
(251,358,o),
(196,358,cs),
(152,358,o),
(107,390,o),
(86,442,c),
(84,442,l),
(40,366,l),
(72,326,o),
(141,300,o),
(196,300,cs),
(283,300,o),
(359,366,o),
(359,439,cs),
(359,509,o),
(310,569,o),
(232,579,c)
);
}
);
width = 923;
}
);
metricLeft = three;
metricRight = eight;
unicode = 8540;
}
{
glyphname = fiveeighths;
layers = (
{
layerId = m01;
shapes = (
{
closed = 1;
nodes = (
(633,775,l),
(622,732,o),
(596,683,o),
(541,582,cs),
(314,185,ls),
(261,97,o),
(215,33,o),
(189,0,c),
(317,0,l),
(326,36,o),
(347,80,o),
(386,153,cs),
(631,580,ls),
(691,681,o),
(734,741,o),
(761,775,c)
);
},
{
closed = 1;
nodes = (
(829,-14,o),
(897,42,o),
(897,125,cs),
(897,176,o),
(873,217,o),
(832,242,c),
(860,265,o),
(876,298,o),
(876,335,cs),
(876,404,o),
(819,463,o),
(735,463,cs),
(653,463,o),
(595,403,o),
(595,335,cs),
(595,298,o),
(611,265,o),
(639,242,c),
(599,217,o),
(574,175,o),
(574,125,cs),
(574,41,o),
(643,-14,o),
(735,-14,cs)
);
},
{
closed = 1;
nodes = (
(684,44,o),
(646,75,o),
(646,125,cs),
(646,173,o),
(681,210,o),
(735,210,cs),
(790,210,o),
(825,173,o),
(825,125,cs),
(825,75,o),
(787,44,o),
(735,44,cs)
);
},
{
closed = 1;
nodes = (
(690,267,o),
(664,300,o),
(664,335,cs),
(664,370,o),
(691,405,o),
(735,405,cs),
(780,405,o),
(808,370,o),
(808,335,cs),
(808,300,o),
(780,267,o),
(735,267,cs)
);
},
{
closed = 1;
nodes = (
(379,529,o),
(316,598,o),
(221,598,cs),
(187,598,o),
(160,588,o),
(141,578,c),
(155,716,l),
(220,716,ls),
(286,716,o),
(314,714,o),
(349,694,c),
(337,775,l),
(97,775,l),
(69,510,l),
(134,510,l),
(142,518,o),
(175,540,o),
(214,540,cs),
(276,540,o),
(307,497,o),
(307,447,cs),
(307,392,o),
(266,359,o),
(216,359,cs),
(164,359,o),
(126,390,o),
(105,443,c),
(103,443,l),
(60,367,l),
(92,327,o),
(155,301,o),
(216,301,cs),
(307,301,o),
(379,361,o),
(379,447,cs)
);
}
);
width = 932;
}
);
metricLeft = five;
metricRight = eight;
unicode = 8541;
}
{
glyphname = integral;
layers = (
{
layerId = m01;
shapes = (
{
closed = 1;
nodes = (
(494,696,l),
(490,696,l),
(469,745,o),
(440,774,o),
(389,774,cs),
(342,774,o),
(313,742,o),
(313,686,cs),
(313,458,o),
(315,310,o),
(315,49,cs),
(315,-65,o),
(249,-133,o),
(158,-133,cs),
(92,-133,o),
(49,-80,o),
(35,-47,c),
(49,64,l),
(53,64,l),
(58,32,o),
(84,-53,o),
(158,-53,cs),
(208,-53,o),
(228,-11,o),
(228,52,cs),
(227,686,ls),
(227,799,o),
(297,854,o),
(390,854,cs),
(464,854,o),
(488,818,o),
(506,797,c)
);
}
);
width = 541;
}
);
metricLeft = s;
metricRight = s;
unicode = 8747;
}
{
glyphname = saltillo;
layers = (
{
layerId = m01;
shapes = (
{
closed = 1;
nodes = (
(50,550,l),
(110,550,l),
(130,775,l),
(30,775,l)
);
}
);
width = 160;
}
);
unicode = 42892;
}
{
glyphname = idotaccent;
kernLeft = i;
kernRight = i;
layers = (
{
layerId = m01;
shapes = (
{
closed = 1;
nodes = (
(40,706,l),
(122,623,l),
(205,706,l),
(122,788,l)
);
},
{
closed = 1;
nodes = (
(85,147,o),
(84,72,o),
(67,0,c),
(198,0,l),
(181,72,o),
(180,147,o),
(180,222,cs),
(180,505,l),
(180,557,l),
(47,529,l),
(47,523,l),
(74,478,o),
(85,438,o),
(85,330,cs),
(85,222,ls)
);
}
);
width = 250;
}
);
metricLeft = i;
metricRight = i;
}
{
glyphname = periodcentered.loclCAT.case;
layers = (
{
layerId = m01;
shapes = (
{
closed = 1;
nodes = (
(-210,368,l),
(-132,290,l),
(-54,368,l),
(-132,446,l)
);
}
);
width = 0;
}
);
}
